<svg width="643" height="195" version="2.0" xmlns="http://www.w3.org/2000/svg" xmlns:xlink="http://www.w3.org/1999/xlink" xmlns:figma="http://www.figma.com/figma/ns">
<title>Group</title>
<desc>Created using Figma (9000)</desc>
<g id="Canvas" transform="translate(676 -3)" figma:type="canvas">
<g id="Group" style="mix-blend-mode:normal;" figma:type="group">
<g id="Partners" style="mix-blend-mode:normal;" figma:type="text">
<use xlink:href="#path0_fill" transform="translate(-423 103)" fill="#FFFCFC" style="mix-blend-mode:normal;"/>
</g>
<g id="Venture" style="mix-blend-mode:normal;" figma:type="text">
<use xlink:href="#path1_fill" transform="translate(-459 3)" fill="#FFFCFC" style="mix-blend-mode:normal;"/>
</g>
<g id="Q_Logo1-16" style="mix-blend-mode:normal;" figma:type="group">
<g id="g" style="mix-blend-mode:normal;" figma:type="group">
<g id="g" style="mix-blend-mode:normal;isolation:isolate;" figma:type="group">
<g id="g" style="mix-blend-mode:normal;isolation:isolate;" figma:type="group">
<g id="g" style="mix-blend-mode:normal;isolation:isolate;" figma:type="group">
<g id="use" style="mix-blend-mode:normal;isolation:isolate;" figma:type="vector">
<use xlink:href="#path2_fill" transform="matrix(1 0 0 1 -676 3)" fill="#FFFFFF" style="mix-blend-mode:normal;"/>
</g>
</g>
<g id="g" style="mix-blend-mode:normal;isolation:isolate;" figma:type="group">
<g id="use" style="mix-blend-mode:normal;isolation:isolate;" figma:type="vector">
<use xlink:href="#path3_fill" transform="matrix(1 0 0 1 -556.9 137.919)" fill="#FFFFFF" style="mix-blend-mode:normal;"/>
</g>
<g id="use" style="mix-blend-mode:normal;isolation:isolate;" figma:type="vector">
<use xlink:href="#path4_fill" transform="matrix(1 0 0 1 -556.948 137.871)" fill="#FFFFFF" style="mix-blend-mode:normal;"/>
</g>
</g>
</g>
</g>
</g>
</g>
<g id="Line" style="mix-blend-mode:normal;" figma:type="line">
<use xlink:href="#path5_stroke" transform="matrix(-0.000249723 1 1 0.000249723 -453 6)" fill="#FFFBFB" style="mix-blend-mode:normal;"/>
</g>
</g>
</g>
<defs>
<path id="path0_fill" d="
M 28.0078 50.5664
L 28.0078 71.6016
C 28.0078 75.5859 28.2227 78.5547 28.6523 80.5078
C 29.1211 82.4219 29.9609 84.0039 31.1719 85.2539
C 32.2266 86.3477 33.4375 87.168 34.8047 87.7148
C 36.2109 88.2227 38.0469 88.5352 40.3125 88.6523
L 40.3125 90
L 2.87109 90
L 2.87109 88.6523
C 5.13672 88.5352 6.95312 88.2227 8.32031 87.7148
C 9.72656 87.168 10.957 86.3477 12.0117 85.2539
C 13.2617 84.0039 14.1016 82.4219 14.5312 80.5078
C 14.9609 78.5938 15.1758 75.625 15.1758 71.6016
L 15.1758 28.418
C 15.1758 25.0586 15.0195 22.4805 14.707 20.6836
C 14.4336 18.8477 13.9453 17.3633 13.2422 16.2305
C 12.2266 14.668 10.9375 13.5156 9.375 12.7734
C 7.8125 11.9922 5.78125 11.5234 3.28125 11.3672
L 2.87109 11.3672
L 2.87109 10.0195
L 38.2031 10.0195
C 44.375 10.0195 48.9258 10.332 51.8555 10.957
C 54.7852 11.582 57.4609 12.832 59.8828 14.707
C 65.4297 18.9258 68.2031 24.5508 68.2031 31.582
C 68.2031 38.7305 65.3906 43.9648 59.7656 47.2852
C 56.8359 49.0039 53.2812 50.0391 49.1016 50.3906
C 47.7734 50.5078 44.5703 50.5664 39.4922 50.5664
L 28.0078 50.5664
Z
M 28.0078 48.6914
L 33.75 48.6914
C 37.6172 48.6914 40.5859 48.418 42.6562 47.8711
C 44.7656 47.2852 46.6406 46.2305 48.2812 44.707
C 52.1094 41.2305 54.0234 36.6016 54.0234 30.8203
C 54.0234 27.6172 53.457 24.6875 52.3242 22.0312
C 51.2305 19.3359 49.6484 17.1484 47.5781 15.4688
C 45.1953 13.4766 42.3633 12.3047 39.082 11.9531
C 38.1836 11.875 36.1328 11.8359 32.9297 11.8359
L 28.0078 11.8359
L 28.0078 48.6914
Z
M 121.055 84.3164
L 122.051 84.9023
C 120.645 89.0039 117.422 91.0547 112.383 91.0547
C 109.609 91.0547 107.305 90.3711 105.469 89.0039
C 104.258 88.1055 103.008 86.543 101.719 84.3164
C 99.1016 86.6602 97.1289 88.2031 95.8008 88.9453
C 93.2617 90.3516 90.3125 91.0547 86.9531 91.0547
C 82.6562 91.0547 79.2383 90.0195 76.6992 87.9492
C 74.1992 85.8789 72.9492 83.0859 72.9492 79.5703
C 72.9492 76.3281 73.9844 73.6133 76.0547 71.4258
C 77.2266 70.2148 78.5742 69.2578 80.0977 68.5547
C 81.6211 67.8125 83.8281 67.0703 86.7188 66.3281
C 90.1172 65.4688 92.6172 64.7461 94.2188 64.1602
C 95.8594 63.5742 97.2266 62.8711 98.3203 62.0508
C 99.5703 61.1523 100.43 60.0977 100.898 58.8867
C 101.367 57.6758 101.602 55.9961 101.602 53.8477
C 101.602 49.2773 100.742 45.9375 99.0234 43.8281
C 98.2422 42.8516 97.2266 42.0703 95.9766 41.4844
C 94.7656 40.8984 93.4961 40.6055 92.168 40.6055
C 90.5664 40.6055 89.1406 41.0156 87.8906 41.8359
C 86.6406 42.6562 85.7031 43.7891 85.0781 45.2344
L 83.6133 48.6328
C 82.832 50.4688 81.4258 51.3867 79.3945 51.3867
C 78.0664 51.3867 76.9531 50.957 76.0547 50.0977
C 75.1562 49.1992 74.707 48.0859 74.707 46.7578
C 74.707 44.7656 76.1133 43.0859 78.9258 41.7188
C 80.4492 41.0156 82.3242 40.4492 84.5508 40.0195
C 86.8164 39.5508 89.0234 39.3164 91.1719 39.3164
C 93.5938 39.3164 96.1133 39.6289 98.7305 40.2539
C 101.348 40.8789 103.535 41.6797 105.293 42.6562
C 107.832 44.1016 109.414 45.9766 110.039 48.2812
C 110.352 49.4531 110.508 51.4258 110.508 54.1992
L 110.508 75.8789
C 110.508 79.5508 110.664 82.0508 110.977 83.3789
C 111.641 86.1523 113.242 87.5391 115.781 87.5391
C 116.992 87.5391 117.93 87.3242 118.594 86.8945
C 119.297 86.4648 120.117 85.6055 121.055 84.3164
Z
M 101.719 61.2305
C 99.6094 62.9883 97.2852 64.5312 94.7461 65.8594
C 91.8945 67.3828 89.9219 68.5352 88.8281 69.3164
C 87.7344 70.0977 86.7383 71.0352 85.8398 72.1289
C 84.0039 74.3945 83.0859 77.0312 83.0859 80.0391
C 83.0859 82.6172 83.7891 84.7461 85.1953 86.4258
C 86.6406 88.1055 88.457 88.9453 90.6445 88.9453
C 92.5586 88.9453 94.3555 88.3594 96.0352 87.1875
C 97.7539 85.9766 99.043 84.375 99.9023 82.3828
C 101.113 79.7656 101.719 75.9766 101.719 71.0156
L 101.719 61.2305
Z
M 138.867 48.3398
C 140.273 45.8789 141.855 44.0234 143.613 42.7734
C 146.855 40.4688 150.547 39.3164 154.688 39.3164
C 157.227 39.3164 159.16 39.8828 160.488 41.0156
C 161.699 42.0312 162.305 43.2812 162.305 44.7656
C 162.305 45.8594 161.934 46.7578 161.191 47.4609
C 160.488 48.1641 159.57 48.5156 158.438 48.5156
C 157.109 48.5156 155.957 47.9688 154.98 46.875
L 153.164 44.8828
C 151.719 43.3594 150.02 42.5977 148.066 42.5977
C 145.41 42.5977 143.34 44.3164 141.855 47.7539
C 140.371 51.1914 139.629 55.9766 139.629 62.1094
L 139.629 73.0664
L 139.688 77.5195
C 139.688 80.1758 139.844 82.1289 140.156 83.3789
C 140.469 84.5898 141.074 85.6055 141.973 86.4258
C 143.066 87.4805 145.078 88.2812 148.008 88.8281
L 148.008 90
L 122.168 90
L 122.168 88.8281
C 124.512 88.5156 126.191 88.0859 127.207 87.5391
C 128.223 86.9531 129.043 85.9766 129.668 84.6094
C 130.098 83.7109 130.391 82.3633 130.547 80.5664
C 130.742 78.7305 130.84 76.0938 130.84 72.6562
L 130.84 58.1836
C 130.84 54.1602 130.742 51.3477 130.547 49.7461
C 130.352 48.1055 129.922 46.7773 129.258 45.7617
C 128.594 44.668 127.793 43.8867 126.855 43.418
C 125.918 42.9102 124.57 42.5977 122.812 42.4805
L 122.812 41.3086
L 137.871 39.1992
C 138.535 42.7539 138.867 45.8008 138.867 48.3398
Z
M 179.004 40.1953
L 193.945 40.1953
L 193.945 42.4219
L 179.004 42.4219
L 179.004 76.5234
C 179.004 80.625 179.707 83.5547 181.113 85.3125
C 181.855 86.2891 182.832 87.0508 184.043 87.5977
C 185.254 88.1445 186.562 88.418 187.969 88.418
C 189.727 88.418 191.191 88.0664 192.363 87.3633
C 193.535 86.6211 194.824 85.293 196.23 83.3789
L 197.109 84.1406
C 195.82 86.4844 194.004 88.2227 191.66 89.3555
C 189.355 90.4883 186.465 91.0547 182.988 91.0547
C 178.379 91.0547 175.02 90.1562 172.91 88.3594
C 171.777 87.4219 171.035 86.3086 170.684 85.0195
C 170.332 83.6914 170.156 81.3281 170.156 77.9297
L 170.156 42.4219
L 163.887 42.4219
L 163.887 41.4844
C 166.426 40.6641 168.77 39.082 170.918 36.7383
C 172.207 35.293 173.242 33.8672 174.023 32.4609
C 174.805 31.0156 175.547 29.1602 176.25 26.8945
L 176.836 24.9609
L 179.004 24.9609
L 179.004 40.1953
Z
M 211.641 39.1992
C 212.188 41.4648 212.461 43.5742 212.461 45.5273
L 212.461 46.4648
C 217.305 41.6992 223.066 39.3164 229.746 39.3164
C 234.746 39.3164 238.77 40.4883 241.816 42.832
C 244.824 45.1367 246.328 48.418 246.328 52.6758
L 246.328 77.5195
C 246.328 80.1758 246.484 82.1289 246.797 83.3789
C 247.109 84.5898 247.715 85.6055 248.613 86.4258
C 249.707 87.4805 251.719 88.2812 254.648 88.8281
L 254.648 90
L 228.809 90
L 228.809 88.8281
C 231.152 88.5156 232.832 88.0859 233.848 87.5391
C 234.863 86.9531 235.684 85.9766 236.309 84.6094
C 236.738 83.7109 237.031 82.3633 237.188 80.5664
C 237.383 78.7305 237.48 76.1133 237.48 72.7148
L 237.48 60.293
C 237.48 56.0352 237.324 52.9102 237.012 50.918
C 236.738 48.9258 236.191 47.3242 235.371 46.1133
C 234.473 44.7461 233.184 43.6914 231.504 42.9492
C 229.824 42.168 227.969 41.7773 225.938 41.7773
C 223.75 41.7773 221.699 42.207 219.785 43.0664
C 217.91 43.9258 216.426 45.0977 215.332 46.582
C 214.16 48.1445 213.379 49.9219 212.988 51.9141
C 212.637 53.8672 212.461 57.1289 212.461 61.6992
L 212.461 73.1836
L 212.52 77.5195
C 212.52 80.1758 212.676 82.1289 212.988 83.3789
C 213.301 84.5898 213.906 85.6055 214.805 86.4258
C 215.898 87.4805 217.91 88.2812 220.84 88.8281
L 220.84 90
L 195 90
L 195 88.8281
C 197.344 88.5156 199.023 88.0859 200.039 87.5391
C 201.055 86.9531 201.875 85.9766 202.5 84.6094
C 202.93 83.7109 203.223 82.3633 203.379 80.5664
C 203.574 78.7305 203.672 76.0938 203.672 72.6562
L 203.672 58.1836
C 203.672 54.1602 203.574 51.3477 203.379 49.7461
C 203.184 48.1055 202.754 46.7773 202.09 45.7617
C 201.426 44.668 200.625 43.8867 199.688 43.418
C 198.75 42.9102 197.402 42.5977 195.645 42.4805
L 195.645 41.3086
L 211.641 39.1992
Z
M 269.824 58.125
C 269.668 60.0391 269.59 61.4258 269.59 62.2852
C 269.59 65.6836 270.078 69.0039 271.055 72.2461
C 272.07 75.4883 273.438 78.1836 275.156 80.332
C 276.914 82.5195 279.082 84.2383 281.66 85.4883
C 284.277 86.7383 287.012 87.3633 289.863 87.3633
C 291.973 87.3633 293.965 87.0117 295.84 86.3086
C 297.754 85.6055 299.336 84.6289 300.586 83.3789
C 301.992 82.0117 303.203 79.8242 304.219 76.8164
L 305.391 77.2266
C 304.375 81.7969 302.188 85.2539 298.828 87.5977
C 295.508 89.9023 291.074 91.0547 285.527 91.0547
C 280.723 91.0547 276.602 90.293 273.164 88.7695
C 269.727 87.2461 266.816 84.9023 264.434 81.7383
C 261.113 77.3242 259.453 71.8945 259.453 65.4492
C 259.453 56.6602 262.598 49.7656 268.887 44.7656
C 273.457 41.1328 278.672 39.3164 284.531 39.3164
C 287.656 39.3164 290.547 39.8828 293.203 41.0156
C 295.859 42.1094 298.105 43.7109 299.941 45.8203
C 302.793 49.1016 304.219 53.2031 304.219 58.125
L 269.824 58.125
Z
M 295.488 55.8398
C 295.215 51.9336 294.492 48.9258 293.32 46.8164
C 292.266 44.9023 290.859 43.3984 289.102 42.3047
C 287.344 41.1719 285.469 40.6055 283.477 40.6055
C 280.117 40.6055 277.168 42.0508 274.629 44.9414
C 272.129 47.832 270.645 51.4648 270.176 55.8398
L 295.488 55.8398
Z
M 328.242 48.3398
C 329.648 45.8789 331.23 44.0234 332.988 42.7734
C 336.23 40.4688 339.922 39.3164 344.062 39.3164
C 346.602 39.3164 348.535 39.8828 349.863 41.0156
C 351.074 42.0312 351.68 43.2812 351.68 44.7656
C 351.68 45.8594 351.309 46.7578 350.566 47.4609
C 349.863 48.1641 348.945 48.5156 347.812 48.5156
C 346.484 48.5156 345.332 47.9688 344.355 46.875
L 342.539 44.8828
C 341.094 43.3594 339.395 42.5977 337.441 42.5977
C 334.785 42.5977 332.715 44.3164 331.23 47.7539
C 329.746 51.1914 329.004 55.9766 329.004 62.1094
L 329.004 73.0664
L 329.062 77.5195
C 329.062 80.1758 329.219 82.1289 329.531 83.3789
C 329.844 84.5898 330.449 85.6055 331.348 86.4258
C 332.441 87.4805 334.453 88.2812 337.383 88.8281
L 337.383 90
L 311.543 90
L 311.543 88.8281
C 313.887 88.5156 315.566 88.0859 316.582 87.5391
C 317.598 86.9531 318.418 85.9766 319.043 84.6094
C 319.473 83.7109 319.766 82.3633 319.922 80.5664
C 320.117 78.7305 320.215 76.0938 320.215 72.6562
L 320.215 58.1836
C 320.215 54.1602 320.117 51.3477 319.922 49.7461
C 319.727 48.1055 319.297 46.7773 318.633 45.7617
C 317.969 44.668 317.168 43.8867 316.23 43.418
C 315.293 42.9102 313.945 42.5977 312.188 42.4805
L 312.188 41.3086
L 327.246 39.1992
C 327.91 42.7539 328.242 45.8008 328.242 48.3398
Z
M 357.305 90
L 357.305 73.418
L 358.242 73.418
C 359.336 77.4805 360.703 80.7227 362.344 83.1445
C 365.352 87.5586 368.867 89.7656 372.891 89.7656
C 375.352 89.7656 377.48 89.0234 379.277 87.5391
C 381.23 85.8984 382.207 83.5742 382.207 80.5664
C 382.207 78.1055 381.504 75.957 380.098 74.1211
C 379.316 73.1445 378.32 72.2461 377.109 71.4258
C 375.938 70.6055 373.945 69.4531 371.133 67.9688
C 366.211 65.3516 362.93 63.1641 361.289 61.4062
C 358.945 58.9062 357.773 56.0156 357.773 52.7344
C 357.773 49.2188 358.945 46.1914 361.289 43.6523
C 363.984 40.7617 367.559 39.3164 372.012 39.3164
C 374.004 39.3164 375.859 39.668 377.578 40.3711
L 379.57 41.25
C 380.195 41.4844 380.742 41.6016 381.211 41.6016
C 381.953 41.6016 382.656 41.0156 383.32 39.8438
L 384.492 39.8438
L 385.137 53.1445
L 383.906 53.1445
C 383.477 51.2695 383.008 49.7656 382.5 48.6328
C 382.031 47.5 381.348 46.4062 380.449 45.3516
C 379.238 43.8672 377.832 42.7148 376.23 41.8945
C 374.629 41.0352 373.047 40.6055 371.484 40.6055
C 369.297 40.6055 367.422 41.4062 365.859 43.0078
C 364.336 44.5703 363.574 46.5039 363.574 48.8086
C 363.574 50.7227 364.258 52.4609 365.625 54.0234
C 367.031 55.5469 369.18 56.9531 372.07 58.2422
L 378.281 61.0547
C 381.992 62.7344 384.766 64.8242 386.602 67.3242
C 388.438 69.8242 389.355 72.7734 389.355 76.1719
C 389.355 80.2734 388.027 83.6719 385.371 86.3672
C 382.324 89.4922 378.418 91.0547 373.652 91.0547
C 371.074 91.0547 368.457 90.5469 365.801 89.5312
C 364.082 88.8672 363.047 88.4961 362.695 88.418
C 362.344 88.3008 361.895 88.2422 361.348 88.2422
C 359.98 88.2422 358.945 88.8281 358.242 90
L 357.305 90
Z"/>
<path id="path1_fill" d="
M 28.0078 10.0195
L 66.6797 10.0195
L 66.6797 11.3672
C 63.75 11.6406 61.6406 12.0898 60.3516 12.7148
C 59.1406 13.3008 58.1641 14.2188 57.4219 15.4688
C 56.6797 16.6797 56.3086 18.0078 56.3086 19.4531
C 56.3086 20.4687 56.4062 21.3672 56.6016 22.1484
C 56.7969 22.9297 57.3828 24.6289 58.3594 27.2461
L 75.7031 74.4141
L 92.5195 33.0469
C 94.8633 27.2266 96.0352 22.9883 96.0352 20.332
C 96.0352 18.8477 95.8008 17.4609 95.332 16.1719
C 94.8633 14.8828 94.2383 13.8867 93.457 13.1836
C 92.6758 12.5195 91.8164 12.0508 90.8789 11.7773
C 89.9414 11.5039 88.7305 11.3672 87.2461 11.3672
L 87.2461 10.0195
L 113.32 10.0195
L 113.32 11.3672
C 111.172 11.5625 109.297 12.0898 107.695 12.9492
C 106.133 13.8086 104.629 15.1172 103.184 16.875
C 102.207 18.125 101.172 19.8438 100.078 22.0312
C 99.0234 24.1797 97.5586 27.5195 95.6836 32.0508
L 71.6602 90
L 69.1992 90
L 45.8789 30.1172
C 42.832 22.2656 40.3906 17.2852 38.5547 15.1758
C 37.3828 13.8477 35.9375 12.8906 34.2188 12.3047
C 32.5391 11.6797 30.4688 11.3672 28.0078 11.3672
L 28.0078 10.0195
Z
M 125.273 58.125
C 125.117 60.0391 125.039 61.4258 125.039 62.2852
C 125.039 65.6836 125.527 69.0039 126.504 72.2461
C 127.52 75.4883 128.887 78.1836 130.605 80.332
C 132.363 82.5195 134.531 84.2383 137.109 85.4883
C 139.727 86.7383 142.461 87.3633 145.312 87.3633
C 147.422 87.3633 149.414 87.0117 151.289 86.3086
C 153.203 85.6055 154.785 84.6289 156.035 83.3789
C 157.441 82.0117 158.652 79.8242 159.668 76.8164
L 160.84 77.2266
C 159.824 81.7969 157.637 85.2539 154.277 87.5977
C 150.957 89.9023 146.523 91.0547 140.977 91.0547
C 136.172 91.0547 132.051 90.293 128.613 88.7695
C 125.176 87.2461 122.266 84.9023 119.883 81.7383
C 116.562 77.3242 114.902 71.8945 114.902 65.4492
C 114.902 56.6602 118.047 49.7656 124.336 44.7656
C 128.906 41.1328 134.121 39.3164 139.98 39.3164
C 143.105 39.3164 145.996 39.8828 148.652 41.0156
C 151.309 42.1094 153.555 43.7109 155.391 45.8203
C 158.242 49.1016 159.668 53.2031 159.668 58.125
L 125.273 58.125
Z
M 150.938 55.8398
C 150.664 51.9336 149.941 48.9258 148.77 46.8164
C 147.715 44.9023 146.309 43.3984 144.551 42.3047
C 142.793 41.1719 140.918 40.6055 138.926 40.6055
C 135.566 40.6055 132.617 42.0508 130.078 44.9414
C 127.578 47.832 126.094 51.4648 125.625 55.8398
L 150.938 55.8398
Z
M 183.633 39.1992
C 184.18 41.4648 184.453 43.5742 184.453 45.5273
L 184.453 46.4648
C 189.297 41.6992 195.059 39.3164 201.738 39.3164
C 206.738 39.3164 210.762 40.4883 213.809 42.832
C 216.816 45.1367 218.32 48.418 218.32 52.6758
L 218.32 77.5195
C 218.32 80.1758 218.477 82.1289 218.789 83.3789
C 219.102 84.5898 219.707 85.6055 220.605 86.4258
C 221.699 87.4805 223.711 88.2812 226.641 88.8281
L 226.641 90
L 200.801 90
L 200.801 88.8281
C 203.145 88.5156 204.824 88.0859 205.84 87.5391
C 206.855 86.9531 207.676 85.9766 208.301 84.6094
C 208.73 83.7109 209.023 82.3633 209.18 80.5664
C 209.375 78.7305 209.473 76.1133 209.473 72.7148
L 209.473 60.293
C 209.473 56.0352 209.316 52.9102 209.004 50.918
C 208.73 48.9258 208.184 47.3242 207.363 46.1133
C 206.465 44.7461 205.176 43.6914 203.496 42.9492
C 201.816 42.168 199.961 41.7773 197.93 41.7773
C 195.742 41.7773 193.691 42.207 191.777 43.0664
C 189.902 43.9258 188.418 45.0977 187.324 46.582
C 186.152 48.1445 185.371 49.9219 184.98 51.9141
C 184.629 53.8672 184.453 57.1289 184.453 61.6992
L 184.453 73.1836
L 184.512 77.5195
C 184.512 80.1758 184.668 82.1289 184.98 83.3789
C 185.293 84.5898 185.898 85.6055 186.797 86.4258
C 187.891 87.4805 189.902 88.2812 192.832 88.8281
L 192.832 90
L 166.992 90
L 166.992 88.8281
C 169.336 88.5156 171.016 88.0859 172.031 87.5391
C 173.047 86.9531 173.867 85.9766 174.492 84.6094
C 174.922 83.7109 175.215 82.3633 175.371 80.5664
C 175.566 78.7305 175.664 76.0938 175.664 72.6562
L 175.664 58.1836
C 175.664 54.1602 175.566 51.3477 175.371 49.7461
C 175.176 48.1055 174.746 46.7773 174.082 45.7617
C 173.418 44.668 172.617 43.8867 171.68 43.418
C 170.742 42.9102 169.395 42.5977 167.637 42.4805
L 167.637 41.3086
L 183.633 39.1992
Z
M 244.57 40.1953
L 259.512 40.1953
L 259.512 42.4219
L 244.57 42.4219
L 244.57 76.5234
C 244.57 80.625 245.273 83.5547 246.68 85.3125
C 247.422 86.2891 248.398 87.0508 249.609 87.5977
C 250.82 88.1445 252.129 88.418 253.535 88.418
C 255.293 88.418 256.758 88.0664 257.93 87.3633
C 259.102 86.6211 260.391 85.293 261.797 83.3789
L 262.676 84.1406
C 261.387 86.4844 259.57 88.2227 257.227 89.3555
C 254.922 90.4883 252.031 91.0547 248.555 91.0547
C 243.945 91.0547 240.586 90.1562 238.477 88.3594
C 237.344 87.4219 236.602 86.3086 236.25 85.0195
C 235.898 83.6914 235.723 81.3281 235.723 77.9297
L 235.723 42.4219
L 229.453 42.4219
L 229.453 41.4844
C 231.992 40.6641 234.336 39.082 236.484 36.7383
C 237.773 35.293 238.809 33.8672 239.59 32.4609
C 240.371 31.0156 241.113 29.1602 241.816 26.8945
L 242.402 24.9609
L 244.57 24.9609
L 244.57 40.1953
Z
M 302.754 90.9961
C 302.246 88.6523 301.992 86.25 301.992 83.7891
C 297.109 88.6328 291.328 91.0547 284.648 91.0547
C 279.766 91.0547 275.84 89.8633 272.871 87.4805
C 269.98 85.1367 268.535 81.8164 268.535 77.5195
L 268.535 57.1289
L 268.477 52.6758
C 268.477 50.0195 268.32 48.0859 268.008 46.875
C 267.695 45.6641 267.109 44.6289 266.25 43.7695
C 265.117 42.7148 263.086 41.9336 260.156 41.4258
L 260.156 40.1953
L 277.324 40.1953
L 277.324 69.9023
C 277.324 74.082 277.461 77.1875 277.734 79.2188
C 278.047 81.2109 278.594 82.8516 279.375 84.1406
C 280.234 85.4688 281.465 86.5234 283.066 87.3047
C 284.668 88.0469 286.465 88.418 288.457 88.418
C 290.645 88.418 292.695 87.9883 294.609 87.1289
C 296.523 86.2695 298.027 85.0977 299.121 83.6133
C 300.254 82.0898 300.996 80.332 301.348 78.3398
C 301.738 76.3477 301.934 73.0664 301.934 68.4961
L 301.934 57.0117
L 301.875 52.6758
C 301.875 50.0195 301.719 48.0859 301.406 46.875
C 301.133 45.6641 300.547 44.6289 299.648 43.7695
C 298.555 42.7148 296.523 41.9336 293.555 41.4258
L 293.555 40.1953
L 310.723 40.1953
L 310.723 72.0117
C 310.723 76.0352 310.82 78.8672 311.016 80.5078
C 311.25 82.1094 311.68 83.418 312.305 84.4336
C 313.008 85.5273 313.828 86.3281 314.766 86.8359
C 315.703 87.3047 317.051 87.5977 318.809 87.7148
L 318.809 88.8867
L 302.754 90.9961
Z
M 338.672 48.3398
C 340.078 45.8789 341.66 44.0234 343.418 42.7734
C 346.66 40.4688 350.352 39.3164 354.492 39.3164
C 357.031 39.3164 358.965 39.8828 360.293 41.0156
C 361.504 42.0312 362.109 43.2812 362.109 44.7656
C 362.109 45.8594 361.738 46.7578 360.996 47.4609
C 360.293 48.1641 359.375 48.5156 358.242 48.5156
C 356.914 48.5156 355.762 47.9688 354.785 46.875
L 352.969 44.8828
C 351.523 43.3594 349.824 42.5977 347.871 42.5977
C 345.215 42.5977 343.145 44.3164 341.66 47.7539
C 340.176 51.1914 339.434 55.9766 339.434 62.1094
L 339.434 73.0664
L 339.492 77.5195
C 339.492 80.1758 339.648 82.1289 339.961 83.3789
C 340.273 84.5898 340.879 85.6055 341.777 86.4258
C 342.871 87.4805 344.883 88.2812 347.812 88.8281
L 347.812 90
L 321.973 90
L 321.973 88.8281
C 324.316 88.5156 325.996 88.0859 327.012 87.5391
C 328.027 86.9531 328.848 85.9766 329.473 84.6094
C 329.902 83.7109 330.195 82.3633 330.352 80.5664
C 330.547 78.7305 330.645 76.0938 330.645 72.6562
L 330.645 58.1836
C 330.645 54.1602 330.547 51.3477 330.352 49.7461
C 330.156 48.1055 329.727 46.7773 329.062 45.7617
C 328.398 44.668 327.598 43.8867 326.66 43.418
C 325.723 42.9102 324.375 42.5977 322.617 42.4805
L 322.617 41.3086
L 337.676 39.1992
C 338.34 42.7539 338.672 45.8008 338.672 48.3398
Z
M 376.055 58.125
C 375.898 60.0391 375.82 61.4258 375.82 62.2852
C 375.82 65.6836 376.309 69.0039 377.285 72.2461
C 378.301 75.4883 379.668 78.1836 381.387 80.332
C 383.145 82.5195 385.312 84.2383 387.891 85.4883
C 390.508 86.7383 393.242 87.3633 396.094 87.3633
C 398.203 87.3633 400.195 87.0117 402.07 86.3086
C 403.984 85.6055 405.566 84.6289 406.816 83.3789
C 408.223 82.0117 409.434 79.8242 410.449 76.8164
L 411.621 77.2266
C 410.605 81.7969 408.418 85.2539 405.059 87.5977
C 401.738 89.9023 397.305 91.0547 391.758 91.0547
C 386.953 91.0547 382.832 90.293 379.395 88.7695
C 375.957 87.2461 373.047 84.9023 370.664 81.7383
C 367.344 77.3242 365.684 71.8945 365.684 65.4492
C 365.684 56.6602 368.828 49.7656 375.117 44.7656
C 379.688 41.1328 384.902 39.3164 390.762 39.3164
C 393.887 39.3164 396.777 39.8828 399.434 41.0156
C 402.09 42.1094 404.336 43.7109 406.172 45.8203
C 409.023 49.1016 410.449 53.2031 410.449 58.125
L 376.055 58.125
Z
M 401.719 55.8398
C 401.445 51.9336 400.723 48.9258 399.551 46.8164
C 398.496 44.9023 397.09 43.3984 395.332 42.3047
C 393.574 41.1719 391.699 40.6055 389.707 40.6055
C 386.348 40.6055 383.398 42.0508 380.859 44.9414
C 378.359 47.832 376.875 51.4648 376.406 55.8398
L 401.719 55.8398
Z"/>
<path id="path2_fill" fill-rule="evenodd" d="
M 97.5239 192
C 151.385 192 195.048 149.019 195.048 96
C 195.048 42.9807 151.385 0 97.5239 0
C 43.6629 0 0 42.9807 0 96
C 0 149.019 43.6629 192 97.5239 192
Z
M 179.513 96
C 179.513 146.154 142.805 186.811 97.5239 186.811
C 52.2426 186.811 15.5348 146.154 15.5348 96
C 15.5348 45.8466 52.2426 5.18919 97.5239 5.18919
C 142.805 5.18919 179.513 45.8466 179.513 96
Z"/>
<path id="path3_fill" fill-rule="evenodd" d="
M 0.680627 0.000617998
L 0.00109762 0
L 0 1.53039
L 0.679529 1.53101
C 9.82019 1.53932 15.269 2.97775 19.4925 5.8655
C 23.7406 8.77005 26.8224 13.181 31.1706 19.4017
L 47.0411 43.3457
L 47.0606 43.3752
L 47.0826 43.4025
C 51.5259 48.8835 56.4216 51.1472 62.0904 52.1395
C 67.7389 53.1197 70.7368 53.6744 78.8254 53.6177
C 78.8311 53.6182 79.7345 53.6177 82.1744 53.5623
L 82.8522 53.5623
L 82.8522 52.0359
L 82.2728 52.0359
C 74.0687 52.0359 69.407 50.3618 65.4781 48.1197
C 61.5639 45.886 58.5774 42.4054 54.6248 36.6488
L 54.0802 37.1065
L 54.6179 36.6386
L 38.7491 12.697
L 38.7359 12.6771
L 38.7216 12.6582
C 33.9481 6.37157 28.98 3.15515 22.9758 1.57536
C 16.99 0.013964 9.87706 0.00898172 0.680627 0.000617998
Z"/>
<path id="path4_fill" d="
M 0.728608 0.0487097
L 0.728651 0.000661622
L 0.728608 0.0487097
Z
M 0.0490789 0.0480917
L 0.0491224 4.36276e-05
L 0.00116655 0
L 0.00113203 0.0480571
L 0.0490789 0.0480917
Z
M 0.0479813 1.57848
L 3.44259e-05 1.57845
L 0 1.62649
L 0.0479378 1.62653
L 0.0479813 1.57848
Z
M 0.72751 1.5791
L 0.727554 1.53106
L 0.72751 1.5791
Z
M 38.7971 12.7451
L 38.837 12.7185
L 38.7971 12.7451
Z
M 38.7839 12.7252
L 38.8239 12.6986
L 38.823 12.6973
L 38.8221 12.6962
L 38.7839 12.7252
Z
M 38.7696 12.7063
L 38.8078 12.6772
L 38.7696 12.7063
Z
M 54.1282 37.1546
L 54.0968 37.1183
L 54.1591 37.1914
L 54.1282 37.1546
Z
M 82.2224 53.6104
L 82.2224 53.5623
L 82.2214 53.5624
L 82.2224 53.6104
Z
M 82.9002 53.6104
L 82.9002 53.6585
L 82.9481 53.6585
L 82.9481 53.6104
L 82.9002 53.6104
Z
M 82.9002 52.084
L 82.9481 52.084
L 82.9481 52.036
L 82.9002 52.036
L 82.9002 52.084
Z
M 23.0237 1.62345
L 23.0359 1.57698
L 23.0358 1.57696
L 23.0237 1.62345
Z
M 65.5261 48.1678
L 65.5024 48.2095
L 65.5261 48.1678
Z
M 54.6694 36.6917
L 54.7093 36.6651
L 54.7089 36.6645
L 54.6694 36.6917
Z
M 47.089 43.3938
L 47.129 43.3672
L 47.089 43.3938
Z
M 47.1086 43.4233
L 47.0687 43.4499
L 47.07 43.4517
L 47.0713 43.4534
L 47.1086 43.4233
Z
M 47.1306 43.4506
L 47.0933 43.4807
L 47.0934 43.4808
L 47.1306 43.4506
Z
M 19.5405 5.9136
L 19.5675 5.87391
L 19.5405 5.9136
Z
M 62.1384 52.1876
L 62.1302 52.2349
L 62.1384 52.1876
Z
M 31.2185 19.4498
L 31.2585 19.4232
L 31.2579 19.4222
L 31.2185 19.4498
Z
M 78.8734 53.6658
L 78.8773 53.6178
L 78.8752 53.6177
L 78.873 53.6177
L 78.8734 53.6658
Z
M 0.728651 0.000661622
L 0.0491224 4.36276e-05
L 0.0490354 0.0961397
L 0.728564 0.0967577
L 0.728651 0.000661622
Z
M 0.00113203 0.0480571
L 3.44259e-05 1.57845
L 0.0959282 1.57852
L 0.0970258 0.0481262
L 0.00113203 0.0480571
Z
M 0.0479378 1.62653
L 0.727467 1.62715
L 0.727554 1.53106
L 0.0480248 1.53043
L 0.0479378 1.62653
Z
M 38.837 12.7185
L 38.8239 12.6986
L 38.744 12.7518
L 38.7571 12.7717
L 38.837 12.7185
Z
M 38.8221 12.6962
L 38.8078 12.6772
L 38.7314 12.7354
L 38.7457 12.7542
L 38.8221 12.6962
Z
M 82.2224 53.6585
L 82.9002 53.6585
L 82.9002 53.5624
L 82.2224 53.5624
L 82.2224 53.6585
Z
M 82.9481 53.6104
L 82.9481 52.084
L 82.8522 52.084
L 82.8522 53.6104
L 82.9481 53.6104
Z
M 82.9002 52.036
L 82.3208 52.036
L 82.3208 52.1321
L 82.9002 52.1321
L 82.9002 52.036
Z
M 38.8078 12.6772
C 34.0287 6.38441 29.0473 3.15927 23.0359 1.57698
L 23.0116 1.66993
C 29.0087 3.24721 33.9635 6.45492 38.7314 12.7354
L 38.8078 12.6772
Z
M 23.0358 1.57696
C 17.0441 0.0143988 9.92504 0.00902535 0.728651 0.000661622
L 0.728564 0.0967577
C 9.92494 0.105121 17.0319 0.109713 23.0117 1.66995
L 23.0358 1.57696
Z
M 82.3208 52.036
C 74.1248 52.036 69.4713 50.3639 65.5498 48.126
L 65.5024 48.2095
C 69.4388 50.4559 74.1086 52.1321 82.3208 52.1321
L 82.3208 52.036
Z
M 65.5498 48.126
C 61.6456 45.8981 58.6643 42.4253 54.7123 36.6696
L 54.6333 36.7241
C 58.5864 42.4816 61.5781 45.9701 65.5024 48.2095
L 65.5498 48.126
Z
M 54.7128 36.6703
L 54.7093 36.6651
L 54.6295 36.7183
L 54.6329 36.7235
L 54.7128 36.6703
Z
M 54.7089 36.6645
L 54.7053 36.6594
L 54.6264 36.7138
L 54.6299 36.719
L 54.7089 36.6645
Z
M 54.7058 36.66
L 38.837 12.7185
L 38.7571 12.7717
L 54.6259 36.7132
L 54.7058 36.66
Z
M 54.1591 37.1914
L 54.7037 36.7337
L 54.642 36.6601
L 54.0974 37.1178
L 54.1591 37.1914
Z
M 54.6344 36.6503
L 54.0968 37.1183
L 54.1597 37.1909
L 54.6974 36.7229
L 54.6344 36.6503
Z
M 47.0492 43.4204
L 47.0687 43.4499
L 47.1486 43.3967
L 47.129 43.3672
L 47.0492 43.4204
Z
M 47.0713 43.4534
L 47.0933 43.4807
L 47.1679 43.4203
L 47.1459 43.3931
L 47.0713 43.4534
Z
M 0.727467 1.62715
C 9.86347 1.63546 15.3011 3.07322 19.5135 5.95328
L 19.5675 5.87391
C 15.3328 2.97847 9.87297 1.53937 0.727554 1.53106
L 0.727467 1.62715
Z
M 47.0934 43.4808
C 51.5445 48.9696 56.4553 51.2412 62.1302 52.2349
L 62.1467 52.1402
C 56.4839 51.1495 51.6032 48.8936 47.1678 43.4202
L 47.0934 43.4808
Z
M 31.1786 19.4764
L 47.0492 43.4204
L 47.129 43.3672
L 31.2585 19.4233
L 31.1786 19.4764
Z
M 19.5135 5.95328
C 23.7528 8.85187 26.8297 13.2545 31.1793 19.4774
L 31.2579 19.4222
C 26.9113 13.2038 23.8244 8.78441 19.5675 5.87391
L 19.5135 5.95328
Z
M 78.8695 53.7136
C 78.8724 53.7138 78.8796 53.7138 78.8851 53.7138
C 78.8927 53.7138 78.9039 53.7138 78.919 53.7138
C 78.9491 53.7137 78.9944 53.7135 79.0563 53.7131
C 79.18 53.7123 79.3699 53.7106 79.6357 53.707
C 80.1673 53.7001 81.0034 53.6861 82.2236 53.6584
L 82.2214 53.5624
C 81.0015 53.59 80.1659 53.604 79.6344 53.611
C 79.3688 53.6145 79.1792 53.6162 79.0556 53.6171
C 78.9939 53.6174 78.9487 53.6176 78.9188 53.6177
C 78.9038 53.6177 78.8927 53.6177 78.8852 53.6177
C 78.8815 53.6177 78.8788 53.6177 78.8769 53.6177
C 78.8759 53.6177 78.8753 53.6177 78.8749 53.6177
C 78.8747 53.6177 78.876 53.6177 78.8773 53.6178
L 78.8695 53.7136
Z
M 62.1302 52.2349
C 67.7783 53.2151 70.7806 53.7703 78.8737 53.7138
L 78.873 53.6177
C 70.789 53.6746 67.7953 53.1205 62.1466 52.1402
L 62.1302 52.2349
Z"/>
<path id="path5_stroke" d="
M 1 -2
L 0 -2
L 0 0
L 1 0
L 1 -2
Z
M 191 0
L 192 0
L 192 -2
L 191 -2
L 191 0
Z
M 1 0
L 191 0
L 191 -2
L 1 -2
L 1 0
Z"/>
</defs>
</svg>
